<?xml version="1.0"?>
<svg xmlns="http://www.w3.org/2000/svg" height="512px" viewBox="-17 0 512 512.00051" width="512px"><path d="m405.15625 379.410156c.46875-2.066406.9375-4.121094 1.339844-6.214844.648437-3.410156 1.140625-6.894531 1.578125-10.359374.230469-1.800782.519531-3.582032.691406-5.398438.503906-5.34375.851563-10.703125.851563-16.105469 0-5.117187-.316407-10.1875-.777344-15.265625-.125-1.457031-.273438-2.902344-.441406-4.351562-.503907-4.34375-1.144532-8.667969-1.980469-12.96875-.222657-1.136719-.453125-2.269532-.691407-3.414063-.707031-3.25-1.457031-6.503906-2.347656-9.710937-.058594-.199219-.230468-.332032-.289062-.519532-6.28125-22.355468-17.066406-43.1875-31.691406-61.21875-.113282-.15625-.128907-.34375-.25-.488281-21.011719-25.765625-49.105469-44.820312-80.816407-54.808593l-1.308593-.410157c-4.894532-1.5-9.859376-2.78125-14.890626-3.839843l-1.988281-.390626c-5.023437-.992187-10.101562-1.792968-15.238281-2.332031-.546875-.058593-1.109375-.085937-1.707031-.136719-5.386719-.511718-10.8125-.851562-16.289063-.851562-5.480468 0-10.695312.324219-15.976562.808594-1.449219.136718-2.875.34375-4.265625.511718-3.984375.46875-7.929688 1.070313-11.84375 1.8125-1.351563.261719-2.699219.519532-4.046875.808594-4.417969.957032-8.789063 2.09375-13.105469 3.414063-.625.1875-1.253906.339843-1.878906.527343-10.183594 3.207032-20.035157 7.375-29.429688 12.441407-.734375.402343-1.453125.855469-2.175781 1.238281-3.773438 2.105469-7.46875 4.355469-11.09375 6.75-1 .664062-1.980469 1.332031-2.96875 2.015625-1.417969.980469-2.886719 1.875-4.269531 2.910156-.425781.347657-.820313.738281-1.167969 1.167969-67.503906 50.359375-87.976562 142.546875-48.136719 216.746094.070313.136718.058594.289062.128907.417968 2.558593 4.753907 5.417968 9.320313 8.414062 13.789063.273438.417969.554688.855469.851562 1.238281 5.878907 8.621094 12.535157 16.683594 19.882813 24.089844l1.152344 1.160156c7.3125 7.238282 15.257812 13.804688 23.742187 19.628906l1.996094 1.335938c1.261719.855469 2.480469 1.707031 3.769531 2.5625.476563.273438.976563.496094 1.496094.664062 26.71875 16.53125 57.511719 25.300782 88.933594 25.335938 4.820312 0 9.558593-.332031 14.277343-.726562.09375 0 .175782.042968.273438.042968.25.015625.503906.015625.757812 0 .238282 0 .460938-.066406.699219-.09375 2.851563-.261718 5.640625-.742187 8.449219-1.152344 2.628906-.375 5.257812-.699218 7.859375-1.191406 2.601563-.496094 5.351563-1.214844 8.011719-1.863281 2.664062-.648437 5.300781-1.261719 7.910156-2.03125 2.476562-.730469 4.898438-1.585937 7.332031-2.421875 2.738281-.945312 5.460938-1.902344 8.140625-2.984375 2.199219-.855469 4.34375-1.855469 6.492188-2.824219 2.84375-1.289062 5.648437-2.621094 8.414062-4.0625 1.902344-.992187 3.773438-2.023437 5.625-3.089844 2.886719-1.640624 5.734375-3.367187 8.53125-5.179687 1.648438-1.074219 3.269532-2.167969 4.882813-3.292969 2.84375-1.988281 5.617187-4.0625 8.320312-6.230468 1.476563-1.167969 2.933594-2.347657 4.367188-3.558594 2.671875-2.269532 5.25-4.640625 7.792969-7.082032 1.355468-1.308593 2.703124-2.605468 4.019531-3.953124.929687-.953126 1.945312-1.824219 2.867187-2.816407.449219-.484375.835938-1.027343 1.152344-1.613281 14.914062-16.398438 26.492188-35.546875 34.078125-56.378906.246094-.375.460937-.773438.640625-1.183594.410156-1.152344.691406-2.339844 1.078125-3.5.671875-2.023438 1.277344-4.0625 1.875-6.117188.886719-3.097656 1.699219-6.179687 2.390625-9.285156zm-13.347656-24.089844c-.117188 1.347657-.289063 2.703126-.445313 4.054688-.40625 3.488281-.945312 6.9375-1.585937 10.347656-.230469 1.214844-.417969 2.441406-.671875 3.644532-.902344 4.1875-1.960938 8.304687-3.183594 12.355468l-4.761719-.851562-14.242187-28.484375v-27.734375l22.765625-16.332032c.417968 2.191407.691406 4.4375 1.015625 6.664063.359375 2.441406.8125 4.863281 1.058593 7.324219.476563 4.949218.757813 9.957031.757813 15.027344 0 4.714843-.289063 9.382812-.707031 13.984374zm-167.457032 9.113282 26.769532 26.777344-12.800782 8.535156-11.75-5.882813-47.386718-39.464843v-35.132813l31.632812-31.632813c3.328125-3.335937 3.324219-8.738281-.011718-12.066406-.933594-.933594-2.070313-1.636718-3.324219-2.054687l-25.601563-8.535157c-2.140625-.726562-4.488281-.566406-6.507812.453126l-30.320313 15.164062-8.535156-4.265625v-18.960937l13.492187-41.046876c.851563-.597656 1.597657-1.253906 2.433594-1.824218.65625-.453125 1.328125-.855469 1.988282-1.296875 3.277343-2.179688 6.636718-4.230469 10.085937-6.144531.777344-.429688 1.550781-.855469 2.335937-1.28125 3.800782-2.03125 7.691407-3.910157 11.667969-5.632813.304688-.128906.597657-.273437.894531-.402344 8.8125-3.695312 17.957032-6.550781 27.304688-8.53125 1.09375-.230469 2.203125-.433593 3.304688-.640625 3.566406-.691406 7.183593-1.226562 10.835937-1.707031 1.265625-.144531 2.5625-.316406 3.796875-.433594 4.6875-.402343 9.4375-.691406 14.261719-.691406 5.273437 0 10.539062.269531 15.785156.808594 2.082031.214843 4.105469.648437 6.171875.949219 3.0625.433593 6.144531.800781 9.15625 1.414062 3.011719.617188 5.972656 1.511719 8.96875 2.3125 1.925781.523438 3.890625.933594 5.785156 1.519531 3.488282 1.09375 6.824219 2.425781 10.238282 3.757813 1.296874.511718 2.628906.921875 3.910156 1.464844 3.53125 1.503906 6.945312 3.226562 10.332031 4.984374 1.050781.546876 2.132813 1.007813 3.167969 1.578126 3.316406 1.808593 6.492187 3.824218 9.65625 5.871093 1.050781.675781 2.144531 1.296875 3.175781 2.007813 2.945313 2.003906 5.753906 4.1875 8.535156 6.390625 1.183594.9375 2.40625 1.824219 3.574219 2.808593 2.507812 2.105469 4.898438 4.351563 7.277344 6.609376 1.339844 1.28125 2.707031 2.5625 4.003906 3.867187.765625.785156 1.449219 1.628906 2.203125 2.421875l-22.1875 12c-1.753906.949219-3.117187 2.484375-3.859375 4.335938l-16.410156 41.035156-21.816406 21.863281h-47.667969c-3.917969 0-7.332031 2.667969-8.277344 6.46875l-8.535156 34.132813c-.722657 2.90625.128906 5.980468 2.246093 8.097656zm-74.574218 101.75c-1.578125-1.132813-3.140625-2.3125-4.675782-3.507813-1.792968-1.378906-3.601562-2.753906-5.324218-4.222656-2.183594-1.851563-4.265625-3.796875-6.351563-5.769531-1.535156-1.457032-3.078125-2.910156-4.5625-4.425782-2.058593-2.117187-4.019531-4.320312-5.972656-6.546874-1.339844-1.542969-2.664063-3.089844-3.945313-4.683594-1.867187-2.339844-3.640624-4.746094-5.375-7.1875-1.167968-1.65625-2.320312-3.320313-3.414062-5.023438-.765625-1.1875-1.464844-2.425781-2.210938-3.628906l3.652344-2.125 34.757813 13.902344 6.699219 26.800781zm14.445312 9.25 5.496094-10.75c.941406-1.84375 1.183594-3.96875.675781-5.972656l-8.535156-34.136719c-.664063-2.664063-2.570313-4.84375-5.117187-5.859375l-42.667969-17.066406c-2.4375-.96875-5.1875-.765626-7.457031.542968l-6.792969 3.996094c-26.179688-55.539062-16.457031-121.367188 24.660156-166.964844l-4.640625 14.148438c-.269531.851562-.402344 1.738281-.394531 2.628906v25.601562c-.015625 3.25 1.8125 6.226563 4.71875 7.679688l17.066406 8.53125c2.402344 1.199219 5.226563 1.199219 7.628906 0l30.976563-15.488281 9.148437 3.054687-24.371093 24.363282c-1.589844 1.589843-2.488282 3.742187-2.5 5.992187v42.664063c-.003907 2.535156 1.125 4.941406 3.070312 6.5625l51.199219 42.667968c.511719.414063 1.0625.777344 1.648437 1.074219l17.066406 8.535156c2.734376 1.359375 5.988282 1.15625 8.53125-.539062l25.601563-17.066407c3.921875-2.613281 4.976563-7.914062 2.363281-11.832031-.3125-.46875-.667968-.902343-1.066406-1.300781l-30.71875-30.71875 5.769531-22.980469h44.535157c2.261718 0 4.433593-.898437 6.03125-2.5l25.601562-25.601562c.816406-.816407 1.460938-1.792969 1.894531-2.867188l15.914063-39.800781 22.460937-12.167969c10.128907 13.519531 17.953125 28.621094 23.15625 44.691407l-31.769531 22.78125c-2.230469 1.605468-3.554688 4.183593-3.558594 6.929687v34.132813c-.011718 1.320312.277344 2.628906.855469 3.816406l17.066406 34.132812c1.207031 2.414063 3.492188 4.113282 6.152344 4.582032l5.972656 1.066406c-6.285156 14.476562-14.757812 27.898437-25.128906 39.792968l-18.324219-5.820312-24.597656-16.402344c-1.886719-1.25-4.191406-1.703125-6.410156-1.261718l-42.667969 8.53125c-2.046875.414062-3.871094 1.570312-5.117187 3.246093l-25.601563 34.132813c-1.84375 2.457031-2.226563 5.714844-.996094 8.53125l9.617188 22.101562c-.609375 0-1.1875.09375-1.792969.09375-26.144531 0-51.847656-6.714844-74.652344-19.507812zm173.511719-16.679688c-.726563.605469-1.441406 1.21875-2.1875 1.816406-3.222656 2.628907-6.558594 5.121094-10 7.484376-.359375.246093-.707031.527343-1.074219.765624-3.910156 2.628907-7.9375 5.078126-12.082031 7.347657-.539063.300781-1.09375.546875-1.632813.855469-3.410156 1.808593-6.886718 3.472656-10.433593 5.023437-1.316407.582031-2.648438 1.117187-3.976563 1.65625-2.929687 1.1875-5.914062 2.269531-8.9375 3.277344-1.449218.484375-2.890625.996093-4.359375 1.433593-3.980469 1.199219-8.03125 2.246094-12.140625 3.132813-1.367187.289063-2.757812.492187-4.140625.75-2.644531.488281-5.332031.851563-8.03125 1.230469l-10.015625-23.042969 20.667969-27.5625 36-7.191406 22.65625 15.101562c.664063.445313 1.390625.792969 2.152344 1.035157l11.195312 3.558593c-1.230469 1.109375-2.398437 2.261719-3.660156 3.328125zm0 0" fill="#4f9eff"/><path d="m267.078125 78.898438c-1.632813 1.597656-2.554687 3.785156-2.5625 6.066406v68.632812h17.066406v-60.003906l25.507813.273438c3.34375-.097657 6.363281-2.019532 7.867187-5.007813 1.394531-3.078125.84375-6.691406-1.40625-9.210937l-68.644531-76.796876c-1.617188-1.8125-3.929688-2.84765575-6.355469-2.851562-2.433593.00390625-4.75 1.046875-6.367187 2.867188l-67.898438 76.433593c-3.128906 3.523438-2.808594 8.917969.714844 12.046875 1.558594 1.382813 3.566406 2.148438 5.648438 2.152344h25.601562v60.101562h17.066406v-68.636718c0-4.710938-3.820312-8.53125-8.53125-8.53125h-15.140625l48.921875-55.101563 49.359375 55.238281-14.78125-.164062c-2.296875-.144531-4.535156.773438-6.066406 2.492188zm0 0" fill="#4f9eff"/><path d="m42.554688 119.464844-14.777344.164062 49.355468-55.238281 48.921876 55.074219h-15.136719c-4.714844 0-8.535157 3.824218-8.535157 8.535156v42.667969h17.066407v-34.132813h25.601562c4.710938 0 8.53125-3.820312 8.535157-8.53125 0-2.089844-.765626-4.109375-2.152344-5.667968l-67.898438-76.433594c-1.617187-1.820313-3.933594-2.863282-6.367187-2.867188-2.429688 0-4.742188 1.039063-6.359375 2.847656l-68.640625 76.800782c-3.136719 3.515625-2.832031 8.910156.683593 12.050781 1.558594 1.390625 3.574219 2.160156 5.664063 2.164063h.09375l25.507813-.269532v85.238282h17.066406v-93.867188c-.007813-2.285156-.929688-4.46875-2.558594-6.066406-1.632812-1.570313-3.804688-2.457032-6.070312-2.46875zm0 0" fill="#4f9eff"/><path d="m34.117188 238.933594h17.066406v17.066406h-17.066406zm0 0" fill="#4f9eff"/><path d="m34.117188 273.066406h17.066406v17.066406h-17.066406zm0 0" fill="#4f9eff"/><path d="m102.382812 187.734375h17.066407v17.066406h-17.066407zm0 0" fill="#4f9eff"/><path d="m34.117188 307.199219h17.066406v17.066406h-17.066406zm0 0" fill="#4f9eff"/><path d="m407.023438 45.882812c-1.617188-1.808593-3.929688-2.847656-6.355469-2.847656-2.4375.003906-4.75 1.046875-6.367188 2.867188l-67.898437 76.429687c-3.132813 3.527344-2.8125 8.917969.710937 12.046875 1.5625 1.386719 3.582031 2.15625 5.671875 2.152344h25.597656v34.136719h17.066407v-42.667969c0-4.714844-3.820313-8.535156-8.53125-8.535156h-15.140625l48.921875-55.074219 49.355469 55.238281-14.777344-.164062c-2.269532.027344-4.445313.90625-6.09375 2.46875-1.621094 1.601562-2.535156 3.785156-2.535156 6.066406v93.867188h17.066406v-85.238282l25.507812.269532h.09375c4.710938 0 8.535156-3.820313 8.535156-8.53125 0-2.097657-.773437-4.121094-2.167968-5.683594zm0 0" fill="#4f9eff"/><path d="m426.648438 238.933594h17.066406v17.066406h-17.066406zm0 0" fill="#4f9eff"/><path d="m426.648438 273.066406h17.066406v17.066406h-17.066406zm0 0" fill="#4f9eff"/><path d="m358.382812 187.734375h17.066407v17.066406h-17.066407zm0 0" fill="#4f9eff"/><path d="m426.648438 307.199219h17.066406v17.066406h-17.066406zm0 0" fill="#4f9eff"/></svg>
